<svg xmlns="http://www.w3.org/2000/svg" viewBox="0 0 1080 380" width="1080" height="380" role="img" aria-label="The harness: you, finished work, and the agent's own schedule write into the session; the agent wakes to make instruments, the canvas, and email, on ClickHouse data">
  <defs>
    <linearGradient id="trig" x1="1" y1="0" x2="0" y2="0">
      <stop offset="0" stop-color="#41FF54"/><stop offset="1" stop-color="#E7FF52"/>
    </linearGradient>
    <marker id="arr" viewBox="0 0 8 8" refX="7" refY="4" markerWidth="7" markerHeight="7" orient="auto-start-reverse">
      <path d="M0 0.6 L7.4 4 L0 7.4 Z" fill="#4d5566"/>
    </marker>
    <marker id="arr-amber" viewBox="0 0 8 8" refX="7" refY="4" markerWidth="7" markerHeight="7" orient="auto-start-reverse">
      <path d="M0 0.6 L7.4 4 L0 7.4 Z" fill="#c68128"/>
    </marker>
  </defs>

  <g font-family="'Instrument Sans', -apple-system, 'Segoe UI', sans-serif" font-size="15" fill="#e6edf3">
    <rect x="28" y="66" width="180" height="48" rx="14" fill="#161b22" stroke="#30363d"/>
    <rect x="50" y="85" width="10" height="10" rx="3" fill="#c68128"/>
    <text x="70" y="95">you</text>
    <rect x="28" y="166" width="180" height="48" rx="14" fill="#161b22" stroke="#30363d"/>
    <rect x="50" y="185" width="10" height="10" rx="3" fill="#5d9b72"/>
    <text x="70" y="195">finished work</text>
    <rect x="28" y="266" width="180" height="48" rx="14" fill="#161b22" stroke="#30363d"/>
    <rect x="50" y="285" width="10" height="10" rx="3" fill="#6d94c4"/>
    <text x="70" y="295">its own schedule</text>
  </g>
  <g fill="none" stroke="#4d5566" stroke-width="1.5">
    <path d="M 208 90 C 248 90, 260 132, 294 149" marker-end="url(#arr)"/>
    <path d="M 208 190 C 240 190, 262 190, 294 190" marker-end="url(#arr)"/>
    <path d="M 208 290 C 248 290, 260 248, 294 231" marker-end="url(#arr)"/>
  </g>

  <text x="370" y="54" text-anchor="middle" font-size="11.5" letter-spacing="2.5" fill="#6d7681" font-family="ui-monospace, 'SF Mono', monospace">THE SESSION</text>
  <rect x="300" y="70" width="140" height="240" rx="18" fill="#161b22" stroke="#30363d"/>
  <g>
    <rect x="316" y="104" width="104" height="18" rx="6" fill="#2d333b"/>
    <rect x="316" y="132" width="82" height="18" rx="6" fill="#2d333b"/>
    <rect x="316" y="160" width="96" height="18" rx="6" fill="#2d333b"/>
    <rect x="316" y="188" width="108" height="18" rx="6" fill="#c68128"/>
  </g>
  <g transform="translate(357, 266) scale(0.081)">
    <path fill-rule="evenodd" clip-rule="evenodd" fill="url(#trig)"
      d="M96.1017 113.4L160.679 4.57764e-05L320.718 281.045H0.638916L65.2159 167.642L110.896 194.382L92.0035 227.561H229.354L160.679 106.965L141.786 140.144L96.1017 113.4Z"/>
  </g>
  <text x="370" y="340" text-anchor="middle" font-size="12.5" fill="#6d7681" font-family="ui-monospace, 'SF Mono', monospace">suspended between turns · $0</text>

  <path d="M 440 197 C 476 197, 500 191, 530 189" fill="none" stroke="#c68128" stroke-width="2" marker-end="url(#arr-amber)"/>

  <g transform="translate(538, 156) scale(0.54)">
    <path d="M 8 104 C 22 92, 32 70, 38 46 C 40 34, 47 28, 53 32 C 59 37, 64 39, 72 37 C 77 36, 80 40, 79 46 C 76 60, 76 74, 80 88 C 82 96, 87 96, 90 90 C 94 79, 96 66, 98 54 C 99 63, 99 76, 102 88 C 105 97, 112 95, 118 88"
      fill="none" stroke="#e6edf3" stroke-width="15" stroke-linecap="round" stroke-linejoin="round"/>
    <circle cx="100" cy="26" r="11" fill="#e8a33d"/>
  </g>
  <text x="573" y="252" text-anchor="middle" font-size="13" fill="#6d7681" font-family="'Instrument Sans', -apple-system, 'Segoe UI', sans-serif">the agent</text>

  <g fill="none" stroke="#4d5566" stroke-width="1.5">
    <path d="M 612 176 C 648 148, 660 100, 696 91" marker-end="url(#arr)"/>
    <path d="M 616 190 C 644 190, 668 190, 696 190" marker-end="url(#arr)"/>
    <path d="M 612 204 C 648 232, 660 280, 696 289" marker-end="url(#arr)"/>
  </g>
  <g font-family="'Instrument Sans', -apple-system, 'Segoe UI', sans-serif" font-size="15" fill="#e6edf3">
    <rect x="700" y="66" width="210" height="48" rx="14" fill="#161b22" stroke="#30363d"/>
    <rect x="722" y="85" width="10" height="10" rx="3" fill="#c68128"/>
    <text x="742" y="95">instruments</text>
    <rect x="700" y="166" width="210" height="48" rx="14" fill="#161b22" stroke="#30363d"/>
    <rect x="722" y="185" width="10" height="10" rx="3" fill="#9b7ba0"/>
    <text x="742" y="195">the canvas</text>
    <rect x="700" y="266" width="210" height="48" rx="14" fill="#161b22" stroke="#30363d"/>
    <rect x="722" y="285" width="10" height="10" rx="3" fill="#6d94c4"/>
    <text x="742" y="295">email + share links</text>
  </g>

  <g transform="translate(700, 344) scale(0.53)">
    <g fill="#fcff74">
      <rect width="3.78" height="34" rx="0.92"/><rect x="7.56" width="3.78" height="34" rx="0.92"/>
      <rect x="15.11" width="3.78" height="34" rx="0.92"/><rect x="22.66" width="3.78" height="34" rx="0.92"/>
      <rect x="30.22" y="13.22" width="3.78" height="7.56" rx="0.92"/>
    </g>
  </g>
  <text x="728" y="357" font-size="12.5" fill="#6d7681" font-family="ui-monospace, 'SF Mono', monospace">datasets · telemetry · its own app state</text>
</svg>
